<svg width="59" height="54" fill="none" xmlns="http://www.w3.org/2000/svg"><g clip-path="url(#clip0_390_245)" fill="#fff"><path d="M38.104 31.5h-1.942l-.688-.608c2.409-2.564 3.86-5.895 3.86-9.517 0-8.078-7.154-14.625-15.98-14.625-8.825 0-15.979 6.547-15.979 14.625S14.529 36 23.355 36c3.957 0 7.595-1.328 10.398-3.532l.664.63v1.777l12.291 11.227 3.663-3.352L38.104 31.5zm-14.75 0c-6.121 0-11.062-4.523-11.062-10.125s4.94-10.125 11.062-10.125c6.121 0 11.063 4.523 11.063 10.125S29.475 31.5 23.354 31.5z"/><path d="M29.5 22.5h-4.917V27h-2.458v-4.5h-4.917v-2.25h4.917v-4.5h2.458v4.5H29.5v2.25z"/></g><defs><clipPath id="clip0_390_245"><path fill="#fff" d="M0 0h59v54H0z"/></clipPath></defs></svg>