<svg width="59" height="54" viewBox="0 0 59 54" fill="none" xmlns="http://www.w3.org/2000/svg">
<g clip-path="url(#clip0_390_245)">
<path d="M38.1042 31.5H36.1621L35.4738 30.8925C37.8829 28.3275 39.3333 24.9975 39.3333 21.375C39.3333 13.2975 32.1796 6.75 23.3542 6.75C14.5288 6.75 7.375 13.2975 7.375 21.375C7.375 29.4525 14.5288 36 23.3542 36C27.3121 36 30.9504 34.6725 33.7529 32.4675L34.4167 33.0975V34.875L46.7083 46.1025L50.3713 42.75L38.1042 31.5ZM23.3542 31.5C17.2329 31.5 12.2917 26.9775 12.2917 21.375C12.2917 15.7725 17.2329 11.25 23.3542 11.25C29.4754 11.25 34.4167 15.7725 34.4167 21.375C34.4167 26.9775 29.4754 31.5 23.3542 31.5Z" fill="#0074BC"/>
<path d="M29.4997 22.5H24.583V27H22.1247V22.5H17.208V20.25H22.1247V15.75H24.583V20.25H29.4997V22.5Z" fill="#0074BC"/>
</g>
<defs>
<clipPath id="clip0_390_245">
<rect width="59" height="54" fill="#0074BC"/>
</clipPath>
</defs>
</svg>
